<svg width="18" height="18" viewBox="0 0 18 18" fill="none" xmlns="http://www.w3.org/2000/svg">
<path d="M18 9C18 13.9706 13.9706 18 9 18C4.02944 18 0 13.9706 0 9C0 4.02944 4.02944 0 9 0C13.9706 0 18 4.02944 18 9Z" fill="black"/>
<path d="M8.38095 5.5625C8.38095 5.2168 8.65759 4.9375 9 4.9375C9.34241 4.9375 9.61905 5.2168 9.61905 5.5625V8.375H12.4048C12.7472 8.375 13.0238 8.6543 13.0238 9C13.0238 9.3457 12.7472 9.625 12.4048 9.625H9.61905V12.4375C9.61905 12.7832 9.34241 13.0625 9 13.0625C8.65759 13.0625 8.38095 12.7832 8.38095 12.4375V9.625H5.59524C5.25283 9.625 4.97619 9.3457 4.97619 9C4.97619 8.6543 5.25283 8.375 5.59524 8.375H8.38095V5.5625Z" fill="white"/>
</svg>
