<svg width="20" height="20" viewBox="0 0 20 20" fill="none" xmlns="http://www.w3.org/2000/svg">
<g clip-path="url(#clip0_11_681)">
<path d="M14.2023 12.8889C14.5689 13.2556 14.5717 13.8452 14.2086 14.2084C13.8454 14.5716 13.2557 14.5688 12.8891 14.2021L9.90595 11.219L6.95126 14.1737C6.58807 14.5369 5.99842 14.5341 5.63174 14.1674C5.26507 13.8007 5.26225 13.2111 5.62543 12.8479L8.58013 9.89318L5.59702 6.91008C5.23035 6.54341 5.22753 5.95375 5.59071 5.59057C5.95389 5.22739 6.54354 5.23021 6.91022 5.59688L9.89332 8.57999L12.848 5.62529C13.2112 5.26211 13.8009 5.26493 14.1675 5.6316C14.5342 5.99828 14.537 6.58793 14.1738 6.95112L11.2191 9.90581L14.2023 12.8889Z" fill="white"/>
</g>
<defs>
<clipPath id="clip0_11_681">
<rect width="13" height="15" fill="currentColor" transform="matrix(0.707106 -0.707106 -0.707106 -0.707106 10.6067 19.799)"/>
</clipPath>
</defs>
</svg>
