<svg width="30" height="26" viewBox="0 0 30 26" fill="none" xmlns="http://www.w3.org/2000/svg">
<path d="M16.0937 5.38281C16.6875 5.02734 17.0833 4.38242 17.0833 3.65625C17.0833 2.53398 16.151 1.625 15 1.625C13.849 1.625 12.9167 2.53398 12.9167 3.65625C12.9167 4.3875 13.3125 5.02734 13.9062 5.38281L10.9219 11.2023C10.4479 12.1266 9.21875 12.3906 8.39063 11.7457L3.75 8.125C4.01042 7.78477 4.16667 7.36328 4.16667 6.90625C4.16667 5.78398 3.23437 4.875 2.08333 4.875C0.932292 4.875 0 5.78398 0 6.90625C0 8.02852 0.932292 8.9375 2.08333 8.9375C2.09375 8.9375 2.10937 8.9375 2.11979 8.9375L4.5 21.7039C4.78646 23.2477 6.16667 24.375 7.78125 24.375H22.2187C23.8281 24.375 25.2083 23.2527 25.5 21.7039L27.8802 8.9375C27.8906 8.9375 27.9062 8.9375 27.9167 8.9375C29.0677 8.9375 30 8.02852 30 6.90625C30 5.78398 29.0677 4.875 27.9167 4.875C26.7656 4.875 25.8333 5.78398 25.8333 6.90625C25.8333 7.36328 25.9896 7.78477 26.25 8.125L21.6094 11.7457C20.7812 12.3906 19.5521 12.1266 19.0781 11.2023L16.0937 5.38281Z" fill="#4CB9E7"/>
</svg>
