<svg width="29" height="29" viewBox="0 0 29 29" fill="none" xmlns="http://www.w3.org/2000/svg">
<path d="M0 5.14227C0 2.30227 2.29753 0 5.13169 0H23.8683C26.7025 0 29 2.30227 29 5.14227V23.8577C29 26.6977 26.7025 29 23.8683 29H5.13169C2.29754 29 0 26.6977 0 23.8577V5.14227Z" fill="#2C2C2C"/>
<path d="M11.5165 6.93608C11.5165 6.63887 11.7569 6.39794 12.0535 6.39794H22.1379C22.4345 6.39794 22.6749 6.63887 22.6749 6.93608C22.6749 7.23329 22.4345 7.47423 22.1379 7.47423H12.0535C11.7569 7.47423 11.5165 7.23329 11.5165 6.93608Z" fill="white"/>
<path d="M8.89095 6.96598C8.89095 7.80807 8.2097 8.49072 7.36934 8.49072C6.52898 8.49072 5.84774 7.80807 5.84774 6.96598C5.84774 6.12389 6.52898 5.44124 7.36934 5.44124C8.2097 5.44124 8.89095 6.12389 8.89095 6.96598Z" fill="white"/>
<path d="M11.5165 11.9588C11.5165 11.6616 11.7569 11.4206 12.0535 11.4206H22.1379C22.4345 11.4206 22.6749 11.6616 22.6749 11.9588C22.6749 12.256 22.4345 12.4969 22.1379 12.4969H12.0535C11.7569 12.4969 11.5165 12.256 11.5165 11.9588Z" fill="white"/>
<path d="M8.89095 11.9887C8.89095 12.8308 8.2097 13.5134 7.36934 13.5134C6.52898 13.5134 5.84774 12.8308 5.84774 11.9887C5.84774 11.1466 6.52898 10.4639 7.36934 10.4639C8.2097 10.4639 8.89095 11.1466 8.89095 11.9887Z" fill="white"/>
<path d="M11.5165 16.9814C11.5165 16.6842 11.7569 16.4433 12.0535 16.4433H22.1379C22.4345 16.4433 22.6749 16.6842 22.6749 16.9814C22.6749 17.2787 22.4345 17.5196 22.1379 17.5196H12.0535C11.7569 17.5196 11.5165 17.2787 11.5165 16.9814Z" fill="white"/>
<path d="M8.89095 17.0113C8.89095 17.8534 8.2097 18.5361 7.36934 18.5361C6.52898 18.5361 5.84774 17.8534 5.84774 17.0113C5.84774 16.1692 6.52898 15.4866 7.36934 15.4866C8.2097 15.4866 8.89095 16.1692 8.89095 17.0113Z" fill="white"/>
<path d="M11.5165 22.0639C11.5165 21.7667 11.7569 21.5258 12.0535 21.5258H22.1379C22.4345 21.5258 22.6749 21.7667 22.6749 22.0639C22.6749 22.3611 22.4345 22.6021 22.1379 22.6021H12.0535C11.7569 22.6021 11.5165 22.3611 11.5165 22.0639Z" fill="white"/>
<path d="M8.89095 22.034C8.89095 22.8761 8.2097 23.5588 7.36934 23.5588C6.52898 23.5588 5.84774 22.8761 5.84774 22.034C5.84774 21.1919 6.52898 20.5093 7.36934 20.5093C8.2097 20.5093 8.89095 21.1919 8.89095 22.034Z" fill="white"/>
</svg>
