<?xml version="1.0" encoding="UTF-8"?>
<svg id="Layer_2" data-name="Layer 2" xmlns="http://www.w3.org/2000/svg" viewBox="0 0 342.56 204.48">
  <g id="Layer_1-2" data-name="Layer 1">
    <g>
      <path d="M99.77,158.75c0,7.53-4.65,11.3-13.95,11.3-4.94,0-8.59-1.18-10.95-3.53l-6.36-6.36c-3.88-1.77-5.83-5.18-5.83-10.24v-40.97c0-6.47-.65-11.54-1.94-15.19-1.06-.35-2.12-.53-3.18-.53-9.77,0-14.66,7.95-14.66,23.84v40.79c0,7.53-4.65,11.3-13.95,11.3-4.94,0-8.59-1.18-10.95-3.53l-6.36-6.36c-3.88-1.77-5.83-5.18-5.83-10.24v-32.31c0-16.6,3.01-30.73,9.02-42.38,.35-.71,.69-1.24,1.04-1.59v-.18l.35-.35h-.18c.47-.71,1.88-2.71,4.24-6l2.83-4.06-2.83,4.06,4.41-4.24,1.06,1.06c6.59-4.59,14.24-6.89,22.96-6.89,14.48,0,25.72,5.89,33.73,17.66l2.47,2.47,1.24,1.06c9.06,7.77,13.6,21.25,13.6,40.44v40.97Zm-11.83-8.83v-40.97c0-20.84-6.24-35.26-18.72-43.26-6.24-4-13.07-6-20.48-6-11.65,0-20.84,4-27.55,12.01v-.88l-1.39,2.3c-.47,.59-1.05,1.53-1.74,2.83-5.8,11.07-8.7,23.49-8.7,37.26v35.85c0,5.53,3.59,8.3,10.77,8.3s10.95-2.77,10.95-8.3v-40.79c0-17.89,5.89-26.84,17.66-26.84,6.59,0,11.48,3.12,14.66,9.36v-.18c1.88,3.65,2.83,9.77,2.83,18.36v40.97c0,5.53,3.59,8.3,10.77,8.3s10.95-2.77,10.95-8.3Z" fill="#231f20"/>
      <path d="M199.89,117.78c0,21.66-6.71,36.79-20.13,45.38-7.18,4.59-14.54,6.89-22.07,6.89-9.65,0-17.83-2.65-24.54-7.95v.88l-8.3-8.3v.71c-2.45-2.35-5.54-6-9.27-10.95-.12-.12-.29-.41-.52-.88-6.06-11.54-9.1-25.72-9.1-42.56v-32.49c0-7.89,4.77-11.83,14.3-11.83,6.94,0,11.42,2.12,13.42,6.36l6.53,6.53c1.88,1.88,2.83,4.48,2.83,7.77v40.97c0,5.65,.53,10.24,1.59,13.77,1.18,.35,2.59,.53,4.24,.53,5.3,0,9.12-2.35,11.48-7.06,1.65-3.29,2.47-8.89,2.47-16.78v-40.97c0-7.77,4.77-11.65,14.3-11.65,6.83,0,11.24,2.06,13.24,6.18l6.89,6.71c1.76,1.77,2.65,4.3,2.65,7.59v41.14Zm-11.83-8.83v-41.14c0-5.41-3.65-8.12-10.95-8.12s-10.77,2.71-10.77,8.12v40.97c0,8.59-.94,14.72-2.83,18.36-3.06,6-7.95,9.01-14.66,9.01-11.77,0-17.66-8.89-17.66-26.66v-40.97c0-5.53-3.65-8.3-10.95-8.3s-10.77,2.77-10.77,8.3v36.02c0,14.01,2.9,26.43,8.7,37.26,0,.12,.12,.3,.35,.53,1.27,2.47,2.2,4,2.78,4.59v-.71c6.71,8,15.89,12.01,27.55,12.01,6.94,0,13.77-2.12,20.48-6.36,12.48-7.89,18.72-22.19,18.72-42.91Z" fill="#231f20"/>
      <path d="M299.66,73.78c0,1.07-.24,2.2-.71,3.38l-32.67,83.88h-.18c-2,5.53-6,8.3-12.01,8.3-4.71,0-8.3-1.24-10.77-3.71l-6.53-6.53c-1.88-.94-3.53-2.59-4.94-4.94h-.18l-33.02-85.11c-.47-.93-.71-2.09-.71-3.49,0-7.33,4.89-10.99,14.67-10.99,6.24,0,10.84,2.45,13.78,7.34l5.48,5.42,.71,.52c1.41,1.52,2.47,3.21,3.18,5.07l11.66,31.53,15.15-40.87c2.23-6,7.18-9.01,14.83-9.01,7.06,0,11.48,2.08,13.24,6.23l6.53,6.58c1.65,1.66,2.47,3.8,2.47,6.41Zm-11.83-8.85c0-4.56-3.45-6.83-10.36-6.83-5.97,0-9.77,2.25-11.41,6.76l-21.1,56.4-20.88-56.09c-1.77-4.71-5.59-7.06-11.48-7.06-7.42,0-11.12,2.49-11.12,7.47,0,.81,.16,1.56,.49,2.26l32.52,83.34c1.64,4.23,5.23,6.35,10.76,6.35,4.59,0,7.71-2.12,9.35-6.37l32.67-83.88c.37-.96,.56-1.74,.56-2.34Zm-55.98,2.35l-.18-.18c.12,0,.18,.06,.18,.18Z" fill="#231f20"/>
      <path d="M342.21,46.44c0,7.89-3.65,12.89-10.95,15.01,0,.12,.06,.18,.18,.18v.35l6.89,6.71c1.77,1.77,2.65,4.36,2.65,7.77v81.93c0,6.83-4.59,10.24-13.77,10.24-4.71,0-8.12-1.06-10.24-3.18l-6.71-6.71c-3.53-1.53-5.3-4.65-5.3-9.37V67.59c0-6.83,3.43-10.66,10.29-11.48l-4.24-4.24c-5.33-2.82-7.99-7.58-7.99-14.28,0-4.7,1.41-8.61,4.24-11.72,2.83-3.11,6.53-4.67,11.12-4.67,6.12,0,10.59,2.59,13.42,7.77l5.83,5.83c3.06,3.06,4.59,6.95,4.59,11.65Zm-11.83-8.83c0-3.65-1.12-6.71-3.36-9.18-2.24-2.47-5.12-3.71-8.65-3.71s-6.39,1.24-8.56,3.71c-2.18,2.47-3.27,5.53-3.27,9.18,0,3.42,1.12,6.36,3.36,8.83,2.23,2.47,5.06,3.71,8.48,3.71s6.27-1.24,8.56-3.71,3.44-5.41,3.44-8.83Zm-1.24,111.95V67.63c0-5.41-3.53-8.12-10.59-8.12s-10.07,2.71-10.07,8.12v81.76c0,4.94,3.29,7.42,9.89,7.42,7.18,0,10.77-2.41,10.77-7.24Z" fill="#231f20"/>
    </g>
  </g>
</svg>