<svg width="35" height="35" viewBox="0 0 35 35" fill="none" xmlns="http://www.w3.org/2000/svg">
<path d="M35 17.5C35 27.165 27.165 35 17.5 35C7.83502 35 0 27.165 0 17.5C0 7.83502 7.83502 0 17.5 0C27.165 0 35 7.83502 35 17.5Z" fill="#2C2C2C"/>
<path d="M18 17.875C19.0443 17.875 20.0458 17.4602 20.7842 16.7217C21.5227 15.9833 21.9375 14.9818 21.9375 13.9375C21.9375 12.8932 21.5227 11.8917 20.7842 11.1533C20.0458 10.4148 19.0443 10 18 10C16.9557 10 15.9542 10.4148 15.2158 11.1533C14.4773 11.8917 14.0625 12.8932 14.0625 13.9375C14.0625 14.9818 14.4773 15.9833 15.2158 16.7217C15.9542 17.4602 16.9557 17.875 18 17.875ZM15.4105 18.75C12.9742 18.75 11 20.7242 11 23.1605C11 23.6254 11.3773 24 11.8395 24H24.1605C24.6254 24 25 23.6227 25 23.1605C25 20.7242 23.0258 18.75 20.5895 18.75H15.4105Z" fill="white"/>
</svg>
